HIERARCHY
ROOT Hips
{
	OFFSET 0.00000 0.00000 0.00000
	CHANNELS 6 Xposition Yposition Zposition Zrotation Yrotation Xrotation 
	JOINT LHipJoint
	{
		OFFSET 0 0 0
		CHANNELS 3 Zrotation Yrotation Xrotation
		JOINT LeftHip
		{
			OFFSET 1.80322 -1.53100 0.99595
			CHANNELS 3 Zrotation Yrotation Xrotation
			JOINT LeftKnee
			{
				OFFSET 2.25177 -6.18669 0.00000
				CHANNELS 3 Zrotation Yrotation Xrotation
				JOINT LeftAnkle
				{
					OFFSET 2.26601 -6.22582 0.00000
					CHANNELS 3 Zrotation Yrotation Xrotation
					JOINT LeftToe
					{
						OFFSET 0.23701 -0.65119 2.15848
						CHANNELS 3 Zrotation Yrotation Xrotation
						End Site
						{
							OFFSET 0.00000 -0.00000 1.12949
						}
					}
				}
			}
		}
	}
	JOINT RHipJoint
	{
		OFFSET 0 0 0
		CHANNELS 3 Zrotation Yrotation Xrotation
		JOINT RightHip
		{
			OFFSET -1.93977 -1.53100 0.99595
			CHANNELS 3 Zrotation Yrotation Xrotation
			JOINT RightKnee
			{
				OFFSET -2.28036 -6.26523 0.00000
				CHANNELS 3 Zrotation Yrotation Xrotation
				JOINT RightAnkle
				{
					OFFSET -2.25490 -6.19528 0.00000
					CHANNELS 3 Zrotation Yrotation Xrotation
					JOINT RightToe
					{
						OFFSET -0.28375 -0.77960 2.23137
						CHANNELS 3 Zrotation Yrotation Xrotation
						End Site
						{
							OFFSET -0.00000 -0.00000 1.17899
						}
					}
				}
			}
		}
	}
	JOINT lowerback
	{
		OFFSET 0 0 0
		CHANNELS 3 Zrotation Yrotation Xrotation
		JOINT Chest
		{
			OFFSET -0.00088 2.12090 -0.02806
			CHANNELS 3 Zrotation Yrotation Xrotation
			JOINT Chest2
			{
				OFFSET -0.00286 2.09666 0.12974
				CHANNELS 3 Zrotation Yrotation Xrotation
				JOINT lowerneck
				{
					OFFSET 0 0 0
					CHANNELS 3 Zrotation Yrotation Xrotation
					JOINT Neck
					{
						OFFSET 0.07328 1.83526 0.07290
						CHANNELS 3 Zrotation Yrotation Xrotation
						JOINT Head
						{
							OFFSET -0.06683 1.74974 -0.49542
							CHANNELS 3 Zrotation Yrotation Xrotation
							End Site
							{
								OFFSET -0.03398 1.85163 -0.17573
							}
						}
					}
				}
				JOINT LeftCollar
				{
					OFFSET 0 0 0
					CHANNELS 3 Zrotation Yrotation Xrotation
					JOINT LeftShoulder
					{
						OFFSET 3.02113 1.18018 0.40602
CHANNELS 3 Zrotation Xrotation Yrotation
						JOINT LeftElbow
						{
OFFSET 0 -4.585380 -0.000000
CHANNELS 3 Zrotation Xrotation Yrotation
							JOINT LeftWrist
							{
OFFSET 0 -2.689350 -0.000000
CHANNELS 3 Zrotation Xrotation Yrotation
								JOINT lhand
								{
									OFFSET 0 0 0
CHANNELS 3 Zrotation Xrotation Yrotation
									JOINT LFingers
									{
OFFSET 0 -0.585060 -0.000000
CHANNELS 3 Zrotation Xrotation Yrotation
										End Site
										{
OFFSET 0 -0.471690 -0.000000
										}
									}
								}
								JOINT LThumb
								{
OFFSET 0 0.000000 0.000000
CHANNELS 3 Zrotation Xrotation Yrotation
									End Site
									{
OFFSET 0 -0.478890 0.478890
									}
								}
							}
						}
					}
				}
				JOINT RightCollar
				{
					OFFSET 0 0 0
					CHANNELS 3 Zrotation Yrotation Xrotation
					JOINT RightShoulder
					{
						OFFSET -2.95074 1.18843 0.31430
CHANNELS 3 Zrotation Xrotation Yrotation
						JOINT RightElbow
						{
OFFSET 0 -4.474500 -0.000000
CHANNELS 3 Zrotation Xrotation Yrotation
							JOINT RightWrist
							{
OFFSET 0 -2.938960 -0.000000
CHANNELS 3 Zrotation Xrotation Yrotation
								JOINT rhand
								{
									OFFSET 0 0 0
CHANNELS 3 Zrotation Xrotation Yrotation
									JOINT RFingers
									{
OFFSET 0 -0.405090 -0.000000
CHANNELS 3 Zrotation Xrotation Yrotation
										End Site
										{
OFFSET 0 -0.326600 -0.000000
										}
									}
								}
								JOINT RThumb
								{
OFFSET 0 0.000000 0.000000
CHANNELS 3 Zrotation Xrotation Yrotation
									End Site
									{
OFFSET 0 -0.331580 0.331580
									}
								}
							}
						}
					}
				}
			}
		}
	}
}
MOTION
Frames: 11
Frame Time: 0.008333333333333333
-1.161793 15.809867 3.027605 0.435647 13.703771 19.835614 0.000000 0.000000 0.000000 -7.454146 -14.133473 -29.883931 1.265716 7.129197 20.099507 0.036404 11.252910 -16.535189 0.256834 -3.260224 -9.004143 0.000000 0.000000 0.000000 15.685787 -1.431874 -32.475721 -2.953536 -10.618047 31.003731 -0.354623 -12.494530 -21.724123 -0.102367 2.062843 -5.679381 1.549671 0.247698 5.071100 -0.755220 0.418047 -4.211592 -1.708430 0.106900 -7.234776 13.079865 6.922449 -11.541596 -10.195698 9.380274 21.828417 -4.581988 4.424558 9.939240 0.000000 0.000000 0.000000 5.294474 14.482802 -46.936206 26.170225 -37.376207 8.990876 6.585196 9.086938 -17.395792 0.000000 0.000000 0.000000 -7.125000 0.000000 0.000000 -20.096562 46.448909 0.748650 0.000000 0.000000 0.000000 -11.149365 2.866131 55.637234 -60.891468 -56.542814 -35.083837 -29.000291 -10.491380 2.451178 0.000000 0.000000 0.000000 7.125000 0.000000 0.000000 -1.954399 32.777703 -0.584996
-1.189610 15.597113 2.919285 1.506268 18.414410 20.643498 0.000000 0.000000 0.000000 -7.935289 -14.621547 -36.203337 2.109858 9.089355 26.076631 0.223480 6.729130 -13.838408 0.371819 -3.916455 -10.841851 0.000000 0.000000 0.000000 15.546935 -5.541596 -37.686973 -4.374400 -12.640443 38.040466 -0.826833 -11.153379 -24.590573 -0.121366 2.245018 -6.183399 1.304737 1.015733 6.372269 -0.886381 1.433465 -3.861117 -1.848140 0.612944 -7.575678 10.275584 4.622867 -12.876371 -8.410601 6.057320 20.094314 -3.874292 2.798283 8.985172 0.000000 0.000000 0.000000 5.707321 14.233948 -49.712240 27.990567 -39.106918 10.117955 10.243031 7.460279 -15.971602 0.000000 0.000000 0.000000 -7.125000 0.000000 0.000000 -16.293970 45.542306 0.225102 0.000000 0.000000 0.000000 -12.385829 -7.298793 53.660052 -59.580519 -56.196697 -33.992410 -30.007729 -7.368897 4.336240 0.000000 0.000000 0.000000 7.125000 0.000000 0.000000 -2.790028 34.973389 -0.687288
-1.210445 15.328676 2.831001 2.786423 22.568620 21.867954 0.000000 0.000000 0.000000 -8.624626 -15.436039 -42.692772 3.226443 11.052168 32.456866 0.277419 2.064477 -10.928594 0.251691 -3.226916 -8.911394 0.000000 0.000000 0.000000 15.173499 -9.473070 -43.276817 -6.145816 -14.567610 45.563241 -1.313148 -9.907247 -27.284833 -0.222423 3.035521 -8.377565 1.211323 2.112712 7.375828 -1.230221 2.879731 -3.509603 -2.374750 1.316551 -7.709608 7.427743 1.974098 -13.791359 -6.571873 2.428127 17.992061 -3.156426 1.037196 8.004682 0.000000 0.000000 0.000000 6.566552 14.164503 -52.533742 30.349950 -41.191197 11.639500 14.347661 6.788444 -13.837045 0.000000 0.000000 0.000000 -7.125000 0.000000 0.000000 -11.975385 43.913137 -0.325795 0.000000 0.000000 0.000000 -14.264499 -18.128053 49.175734 -55.090167 -54.852325 -30.289907 -30.295101 -8.407088 6.809489 0.000000 0.000000 0.000000 7.125000 0.000000 0.000000 -3.021091 37.837963 -0.533381
-1.220252 15.030729 2.759980 3.592557 26.939256 22.961008 0.000000 0.000000 0.000000 -8.340622 -17.282599 -48.631109 4.560419 12.869567 38.884446 0.291258 -1.958277 -9.707177 0.092242 -1.957909 -5.389369 0.000000 0.000000 0.000000 15.417436 -13.246552 -48.124923 -7.960768 -16.089044 52.419270 -1.807670 -9.098619 -30.055860 -0.315035 3.607690 -9.975581 2.188535 3.105474 8.463357 -1.509878 4.309631 -3.118713 -3.462418 1.959615 -7.760994 5.097984 -0.626445 -14.330782 -4.932921 -1.053396 15.711138 -2.553473 -0.639769 7.112012 0.000000 0.000000 0.000000 7.288907 14.322284 -53.929000 33.451577 -43.673019 13.733371 16.056939 5.339898 -12.708109 0.000000 0.000000 0.000000 -7.125000 0.000000 0.000000 -10.174112 42.956050 -0.518967 0.000000 0.000000 0.000000 -17.900686 -29.250588 42.182767 -46.218194 -51.343254 -23.188639 -29.328892 -6.970097 8.925302 0.000000 0.000000 0.000000 7.125000 0.000000 0.000000 -2.122494 40.182578 -0.252474
-1.223640 14.732704 2.719615 4.897465 31.180134 24.133503 0.000000 0.000000 0.000000 -8.423747 -19.613761 -53.335210 5.817043 14.248556 44.242640 0.276403 -5.245780 -9.496905 0.037377 -1.247267 -3.429490 0.000000 0.000000 0.000000 15.276546 -17.182333 -52.281225 -9.801634 -17.296605 58.823062 -2.275570 -8.676102 -32.640736 -0.431050 4.213364 -11.677626 2.912473 3.926358 9.657481 -1.812318 5.491699 -2.658307 -4.425991 2.495725 -7.775231 3.231435 -3.040283 -14.336439 -3.229295 -4.272105 13.181826 -1.954081 -2.166415 6.209087 0.000000 0.000000 0.000000 7.604283 14.640278 -54.089969 36.593606 -45.916945 15.947501 17.126196 3.638479 -12.662575 0.000000 0.000000 0.000000 -7.125000 0.000000 0.000000 -9.212038 43.021156 -0.453936 0.000000 0.000000 0.000000 -24.020378 -39.924433 32.302922 -35.418275 -45.106486 -15.109609 -28.731916 -4.224403 10.292511 0.000000 0.000000 0.000000 7.125000 0.000000 0.000000 -1.520138 41.675149 -0.124776
-1.236604 14.442956 2.694258 6.270610 34.942676 25.752459 0.000000 0.000000 0.000000 -8.372873 -21.702950 -57.820214 6.981240 15.315501 48.802213 0.208184 -8.028591 -9.224382 0.009017 -0.611966 -1.681577 0.000000 0.000000 0.000000 15.212374 -20.438399 -56.303203 -11.608616 -18.219548 64.741998 -2.643941 -8.711232 -34.732188 -0.595193 4.938650 -13.733625 3.506997 4.694448 10.751670 -2.036796 6.604948 -2.417567 -5.252099 2.998288 -7.950856 1.703669 -5.124045 -14.182010 -1.719893 -7.001660 10.919657 -1.419171 -3.466462 5.483858 0.000000 0.000000 0.000000 7.679304 15.020841 -52.694024 39.105918 -47.530839 17.776993 16.656932 2.211537 -10.726561 0.000000 0.000000 0.000000 -7.125000 0.000000 0.000000 -9.226613 40.990421 -0.921341 0.000000 0.000000 0.000000 -33.374341 -48.919227 18.359098 -25.907284 -37.107560 -8.835451 -26.978258 -1.157582 11.406604 0.000000 0.000000 0.000000 7.125000 0.000000 0.000000 0.150349 42.735711 0.007960
-1.236540 14.176872 2.686664 7.658346 38.336902 27.410687 0.000000 0.000000 0.000000 -8.316434 -23.739602 -61.683308 8.050125 16.155750 52.742548 0.115320 -10.173883 -8.889504 0.000243 0.093900 0.258038 0.000000 0.000000 0.000000 15.297202 -23.796226 -59.867253 -13.275286 -18.878917 69.978084 -3.019296 -8.280426 -36.478038 -0.736762 5.483431 -15.292725 4.143992 5.274407 11.686765 -2.130546 7.486312 -2.151627 -5.924756 3.393238 -8.011670 0.503777 -6.774209 -13.958829 -0.416116 -9.136542 8.852350 -0.948522 -4.486515 4.875758 0.000000 0.000000 0.000000 7.909624 15.704230 -50.633133 41.504725 -48.936328 19.566394 15.056294 0.846265 -9.386192 0.000000 0.000000 0.000000 -7.125000 0.000000 0.000000 -10.351055 39.488369 -1.423862 0.000000 0.000000 0.000000 -46.164877 -55.847135 -1.096443 -18.201550 -28.409674 -4.647256 -25.592084 2.900437 12.645971 0.000000 0.000000 0.000000 7.125000 0.000000 0.000000 1.552760 43.944399 0.040192
-1.242858 13.937655 2.675183 8.967416 41.244817 28.915907 0.000000 0.000000 0.000000 -7.950117 -25.871794 -64.843948 8.950863 16.775796 55.919632 0.035829 -11.598948 -8.642208 0.010013 0.646288 1.776016 0.000000 0.000000 0.000000 15.218499 -26.445917 -62.668807 -14.754857 -19.326928 74.497017 -3.300153 -7.961537 -37.730206 -0.893730 6.025479 -16.858277 4.379417 5.480550 12.637686 -1.777599 7.845874 -1.763574 -5.822554 3.561014 -8.108713 -0.245598 -7.647618 -13.853206 0.196850 -10.210463 7.037935 -0.681411 -5.019483 4.356719 0.000000 0.000000 0.000000 7.642101 16.888231 -48.057726 43.152885 -49.830754 20.817494 12.773242 0.336070 -9.386895 0.000000 0.000000 0.000000 -7.125000 0.000000 0.000000 -12.299872 39.310877 -1.755137 0.000000 0.000000 0.000000 -63.204527 -61.807816 -30.100759 -11.012383 -18.302575 -1.783359 -22.891714 14.940512 14.769958 0.000000 0.000000 0.000000 7.125000 0.000000 0.000000 4.388096 45.903495 -0.099318
-1.219688 13.762761 2.669169 9.506732 42.862006 29.562415 0.000000 0.000000 0.000000 -7.622474 -26.910943 -66.930929 9.709807 17.243243 58.513776 -0.005197 -12.692895 -8.838342 0.023569 0.990283 2.722045 0.000000 0.000000 0.000000 14.821969 -27.761077 -63.912875 -15.788774 -19.569288 77.601778 -3.467088 -7.595039 -38.366976 -1.013586 6.405531 -17.965765 4.799083 5.808718 13.679818 -1.583751 8.391886 -1.326092 -6.034452 3.812038 -8.129074 -0.339799 -8.164899 -13.678350 0.993546 -10.935908 5.288879 -0.483737 -5.349368 4.282314 0.000000 0.000000 0.000000 7.813627 18.294424 -46.133608 43.460309 -49.991504 21.052732 10.296654 -0.309530 -10.284313 0.000000 0.000000 0.000000 -7.125000 0.000000 0.000000 -14.610738 40.000939 -1.845713 0.000000 0.000000 0.000000 -81.084119 -64.440346 -75.582744 -6.067200 -10.373781 -0.551911 -19.571636 43.064665 15.537321 0.000000 0.000000 0.000000 7.125000 0.000000 0.000000 7.643543 46.276934 -0.242205
-1.191771 13.647288 2.672941 9.702070 44.048037 30.005119 0.000000 0.000000 0.000000 -7.154867 -27.652837 -68.451996 10.256675 17.551699 60.342774 -0.033983 -13.481989 -9.035621 0.038265 1.262596 3.471740 0.000000 0.000000 0.000000 14.736539 -28.613618 -64.851696 -16.517379 -19.706664 79.769557 -3.499353 -7.610338 -38.531426 -1.055210 6.531530 -18.334828 5.210734 5.984798 14.335110 -1.640553 8.710372 -1.079223 -6.439892 3.948959 -8.120830 0.287119 -8.409192 -13.464870 1.961878 -11.429492 4.441276 -0.271818 -5.542678 3.959916 0.000000 0.000000 0.000000 8.629821 19.670569 -45.332233 42.777798 -49.632141 20.531245 8.333980 -3.151514 -11.162262 0.000000 0.000000 0.000000 -7.125000 0.000000 0.000000 -16.507737 40.688588 -1.811088 0.000000 0.000000 0.000000 -88.516172 -64.053400 -94.994887 -5.238810 -8.986826 -0.412009 -19.039394 52.446107 15.802487 0.000000 0.000000 0.000000 7.125000 0.000000 0.000000 8.203102 46.481709 -0.302043
-1.166888 13.595855 2.689675 9.466570 44.766155 29.853716 0.000000 0.000000 0.000000 -6.736221 -27.946612 -69.004262 10.550717 17.708140 61.313663 -0.043859 -13.934839 -9.248304 0.043488 1.346048 3.701503 0.000000 0.000000 0.000000 14.712191 -28.757094 -64.745105 -16.834261 -19.757979 80.708018 -3.498642 -7.756589 -38.600215 -1.038011 6.479745 -18.182965 5.038267 5.856689 14.659393 -1.292999 8.541265 -0.759352 -5.962955 3.888583 -8.057079 0.376873 -8.315863 -13.567758 2.652783 -11.368632 4.217640 -0.056650 -5.476660 3.942425 0.000000 0.000000 0.000000 8.562812 20.706862 -44.767869 41.473830 -48.919068 19.543075 7.879158 -3.113749 -11.243364 0.000000 0.000000 0.000000 -7.125000 0.000000 0.000000 -16.917258 40.726963 -1.842545 0.000000 0.000000 0.000000 -89.042483 -64.219342 -86.943093 -5.728673 -9.808822 -0.491989 -18.193317 44.122128 16.269440 0.000000 0.000000 0.000000 7.125000 0.000000 0.000000 9.111205 46.850159 -0.419371
